<?xml version="1.0" encoding="UTF-8"?>
<svg className="w-full h-full" id="Capa_1" data-name="Capa 1" xmlns="http://www.w3.org/2000/svg" viewBox="0 0 8000 8000">
  <defs>
    <style>
      .cls-1 {
        font-size: 176px;
      }

      .cls-1, .cls-2, .cls-3, .cls-4, .cls-5, .cls-6, .cls-7 {
        fill: #fff;
        font-family: Lato-Bold, Lato;
      }

      .cls-8 {
        font-size: 154.22px;
      }

      .cls-8, .cls-9, .cls-10 {
        font-family: Poppins-Bold, Poppins;
      }

      .cls-11 {
        fill: #ff4c33;
      }

      .cls-12 {
        fill: #ffc301;
      }

      .cls-13 {
        fill: #ff8376;
      }

      .cls-14 {
        fill: #969696;
      }

      .cls-15 {
        fill: #870c38;
      }

      .cls-16 {
        fill: #c70039;
      }

      .cls-2 {
        font-size: 113.9px;
      }

      .cls-17 {
        fill: #b5b5b6;
      }

      .cls-17, .cls-9, .cls-18 {
        stroke: #5b5a5a;
        stroke-miterlimit: 10;
        stroke-width: 2px;
      }

      .cls-3 {
        font-size: 176.89px;
      }

      .cls-9 {
        fill: #f9f9fa;
        font-size: 241.58px;
      }

      .cls-4 {
        font-size: 155.33px;
      }

      .cls-5 {
        font-size: 140.73px;
      }

      .cls-18 {
        fill: none;
      }

      .cls-6 {
        font-size: 142.06px;
      }

      .cls-10 {
        fill: #010101;
        font-size: 154.22px;
      }

      .cls-7 {
        font-size: 162px;
      }
    </style>
  </defs>
  <path class="cls-15" d="M1629.62,5002.62c-117.94-278.84-188.49-600.43-204.01-903.3l-170.04,5.99-162.05,9.15-616.53,34.86-157.21,8.83-159.14,7.51c19.37,461.5,119.75,909.47,299.26,1333.9,81.91,193.64,212.19,432.88,323.34,608.99l131.83-89.02,131.7-88.93,505.55-341.35,126.37-86.18,156.63-99.12c-80.5-124.93-147.27-263.15-205.71-401.34Z"/>
  <path class="cls-16" d="M3994.05,1254.58c-376.12,0-752.81,80.36-1096.42,225.69-331.83,140.35-598.14,340.35-854.01,596.22-255.87,255.87-453.22,527.47-593.58,859.3-121.89,288.18-189.32,534.72-209.21,846.93l186.64,18.18c105.13-693.25,290.5-1166.82,744.69-1614.15,490.08-482.68,1130.7-748.78,1817.15-748.78,289.75,0,573.12,47.98,839.29,139.54l61.95-183.42c-309.35-103.19-566.7-139.51-896.5-139.51Z"/>
  <path class="cls-12" d="M6556.83,2919.3c-140.35-331.82-340.34-632.24-601.42-882.79-237.96-228.38-464-382.82-761.47-520.54l-73.37,179.13c276.26,131.14,458.31,264.7,682.45,488.83,485.39,485.4,737.67,1129.62,737.67,1816.07s-240.07,1318.41-725.46,1803.81c-129.71,129.71-198.66,174.51-357.08,300.98l160.15,219.94c104.93-76.98,239.42-173.48,382.2-325.51,247.72-263.77,455.75-563.45,596.1-895.28,145.33-343.6,208.63-727.81,208.63-1103.94s-103.07-737.1-248.4-1080.7Z"/>
  <path class="cls-16" d="M3992.34,164.88c-2039.03,0-3703.96,1554.64-3825.57,3563.1l948.96,54.74c20.01-322.6,111.91-599.83,237.82-897.51,144.25-341.04,350.73-647.31,613.71-910.29,262.98-262.98,569.24-469.46,910.29-613.71,353.16-149.37,726.85-234.37,1113.42-234.37s769.84,67.89,1122.99,217.26c4.44,1.88,99.55,42.35,103.98,44.25l373.57-875.09c-496.53-234.75-1013.49-348.38-1599.17-348.38Z"/>
  <path class="cls-12" d="M5591.51,513.26l-373.57,875.09c336.77,159.06,532.63,283.63,806.67,548.8,270.87,262.11,492.24,559.55,636.49,900.6,149.37,353.15,255.73,747.91,255.73,1134.48,0,425.02-60.75,758.29-200.8,1125.96-134.5,353.08-355.69,695.17-618.67,958.15-162.05,162.05-197.89,197.5-387.65,335.1l530.84,719.51c972.09-701.6,1598.81-1852.37,1598.81-3143.99,0-1532.4-948.71-2839.49-2247.85-3453.69Z"/>
  <path class="cls-11" d="M5221.68,6251.55c-332.78,180.78-813,313.92-1238.58,310.3-423.2-3.6-840.14-107.07-1203.76-299.78l-280.53,556.75c86.63,46.58,157.46,77.79,248.73,116.39,390.21,165.05,770.11,245.52,1200.35,253.45,426.87,7.87,829.63-54.2,1274.39-227.27,103.43-40.25,227.28-99.58,323.65-152.81l-324.25-557.04Z"/>
  <path class="cls-14" d="M2134.94,5771.09c-75.78-75.78-178.72-213.42-243.62-296.59l-101.77,86.42c-178.58,146.21-251.66,314.99-49.62,588.42,.93,1.26,27.64,28.63,28.75,29.74,64.01,64.01,126.59,134.82,210.53,188.38,200.94,128.23,448.16,92.54,585.2-103.34l47.98-100.17c-149.58-97.12-348.38-263.8-477.46-392.88Z"/>
  <g>
    <path class="cls-13" d="M1351.99,5905.43l-468.39,340.8c290.56,401.44,657.02,744.31,1078.25,1007.73l308.59-496.75c-339.2-214.93-693.42-520.38-918.45-851.77Z"/>
    <g>
      <path class="cls-11" d="M2459.39,6876.67l-293.81,496.72c332,187.96,758.49,342.74,1135.85,403.65l124.75-571.82c-317.36-52.58-749.76-205.16-966.79-328.55Z"/>
      <path class="cls-11" d="M5863.75,7351.77l-299.61-495.13c-313.31,175.83-678.89,287.73-983.36,342.97l102.55,576.91c407.49-67.66,881.99-242.97,1180.41-424.75Z"/>
      <path class="cls-11" d="M4020.54,7252.32c-182.38,5.29-393.2-16.09-553.45-40.27l-107.13,575.13c207.55,38.64,376.41,47.93,632.39,47.93,188.3,0,448.06-13.22,635.35-48.88l-91.77-576.1c-195.99,31.4-303.88,36.05-515.38,42.18Z"/>
    </g>
  </g>
  <circle class="cls-17" cx="3992.35" cy="4000" r="2008.16"/>
  <text class="cls-9" transform="translate(3582.04 4029.77)"><tspan x="0" y="0">RUEDO</tspan></text>
  <text class="cls-10" transform="translate(4681.98 1704.03) rotate(20.22)"><tspan x="0" y="0">TORIL</tspan></text>
  <text class="cls-8" transform="translate(1859.27 5806.04) rotate(40.58)"><tspan x="0" y="0">PUERTA</tspan><tspan x="-24.75" y="145.65">GRANDE</tspan></text>
  <path class="cls-14" d="M5082.9,1679.56c-75.22-35.68-140.75-62.54-225.33-92.57l50.45-175.52c114.86-40.19,213.15-1.92,254.31,101.95l-79.43,166.14Z"/>
  <line class="cls-18" x1="2381.59" y1="1779.44" x2="2491.96" y2="1914.61"/>
  <text class="cls-7" transform="translate(1695.79 1773.24) rotate(-49.84)"><tspan x="0" y="0">T</tspan></text>
  <text class="cls-7" transform="translate(1757.2 1700.5) rotate(-47.34)"><tspan x="0" y="0">E</tspan></text>
  <text class="cls-7" transform="translate(1818.82 1633.03) rotate(-44.51)"><tspan x="0" y="0">N</tspan></text>
  <text class="cls-7" transform="translate(1905.05 1548.23) rotate(-41.3)"><tspan x="0" y="0">D</tspan></text>
  <text class="cls-7" transform="translate(1995.63 1469.53) rotate(-39.04)"><tspan x="0" y="0">I</tspan></text>
  <text class="cls-7" transform="translate(2033.84 1437.63) rotate(-36.78)"><tspan x="0" y="0">D</tspan></text>
  <text class="cls-7" transform="translate(2129.49 1365.93) rotate(-33.47)"><tspan x="0" y="0">O</tspan></text>
  <text class="cls-7" transform="translate(2237.13 1295.82) rotate(-31.35)"><tspan x="0" y="0"> </tspan></text>
  <text class="cls-7" transform="translate(2262.93 1279.56) rotate(-29.7)"><tspan x="0" y="0">3</tspan></text>
  <text class="cls-2" transform="translate(1684.2 2782.62) rotate(-64.15) scale(1.14 1)"><tspan x="0" y="0">T</tspan></text>
  <text class="cls-2" transform="translate(1717.57 2713.79) rotate(-62.08) scale(1.14 1)"><tspan x="0" y="0">E</tspan></text>
  <text class="cls-2" transform="translate(1751.77 2648.71) rotate(-59.76) scale(1.14 1)"><tspan x="0" y="0">N</tspan></text>
  <text class="cls-2" transform="translate(1800.74 2564.71) rotate(-57.17) scale(1.14 1)"><tspan x="0" y="0">D</tspan></text>
  <text class="cls-2" transform="translate(1853.36 2483.95) rotate(-55.38) scale(1.14 1)"><tspan x="0" y="0">I</tspan></text>
  <text class="cls-2" transform="translate(1875.8 2450.68) rotate(-53.6) scale(1.14 1)"><tspan x="0" y="0">D</tspan></text>
  <text class="cls-2" transform="translate(1932.77 2373.24) rotate(-51.05) scale(1.14 1)"><tspan x="0" y="0">O</tspan></text>
  <text class="cls-2" transform="translate(1998.06 2293.35) rotate(-49.44) scale(1.14 1)"><tspan x="0" y="0"> </tspan></text>
  <text class="cls-2" transform="translate(2013.86 2274.46) rotate(-48.19) scale(1.14 1)"><tspan x="0" y="0">3</tspan></text>
  <text class="cls-2" transform="translate(2063.53 2218.8) rotate(-46.22) scale(1.14 1)"><tspan x="0" y="0">B</tspan></text>
  <text class="cls-2" transform="translate(2121.94 2158.34) rotate(-44.89) scale(1.14 1)"><tspan x="0" y="0">	</tspan></text>
  <text class="cls-2" transform="translate(2174.51 2107.04) rotate(-43.1) scale(1.14 1)"><tspan x="0" y="0">	</tspan></text>
  <text class="cls-2" transform="translate(2333.26 1969.66) rotate(-38.07) scale(1.14 1)"><tspan x="0" y="0">	</tspan></text>
  <text class="cls-2" transform="translate(2503.36 1846.54) rotate(-33.16) scale(1.14 1)"><tspan x="0" y="0">	</tspan></text>
  <text class="cls-2" transform="translate(2683.34 1738.27) rotate(-28.34) scale(1.14 1)"><tspan x="0" y="0">	</tspan></text>
  <text class="cls-2" transform="translate(2871.72 1645.34) rotate(-23.62) scale(1.14 1)"><tspan x="0" y="0">	</tspan></text>
  <text class="cls-2" transform="translate(3066.85 1567.94) rotate(-18.41) scale(1.14 1)"><tspan x="0" y="0">T</tspan></text>
  <text class="cls-2" transform="translate(3139.59 1543.74) rotate(-16.77) scale(1.14 1)"><tspan x="0" y="0">E</tspan></text>
  <text class="cls-2" transform="translate(3210.06 1522.3) rotate(-14.92) scale(1.14 1)"><tspan x="0" y="0">N</tspan></text>
  <text class="cls-2" transform="translate(3304.15 1497.22) rotate(-12.84) scale(1.14 1)"><tspan x="0" y="0">D</tspan></text>
  <text class="cls-2" transform="translate(3398.31 1476.13) rotate(-11.36) scale(1.14 1)"><tspan x="0" y="0">I</tspan></text>
  <text class="cls-2" transform="translate(3437.69 1467.84) rotate(-9.87) scale(1.14 1)"><tspan x="0" y="0">D</tspan></text>
  <text class="cls-2" transform="translate(3532.51 1451.25) rotate(-7.69) scale(1.14 1)"><tspan x="0" y="0">O</tspan></text>
  <text class="cls-2" transform="translate(3634.91 1437.91) rotate(-6.28) scale(1.14 1)"><tspan x="0" y="0"> </tspan></text>
  <text class="cls-2" transform="translate(3659.4 1434.97) rotate(-5.17) scale(1.14 1)"><tspan x="0" y="0">3</tspan></text>
  <text class="cls-2" transform="translate(3733.71 1428.1) rotate(-3.32) scale(1.14 1)"><tspan x="0" y="0">A</tspan></text>
  <text class="cls-6" transform="translate(4439.03 6753.85) rotate(168.34)"><tspan x="0" y="0"> </tspan></text>
  <text class="cls-6" transform="translate(4412.76 6759.82) rotate(169.45)"><tspan x="0" y="0">T</tspan></text>
  <text class="cls-6" transform="translate(4330.67 6775.1) rotate(171.88)"><tspan x="0" y="0">E</tspan></text>
  <text class="cls-6" transform="translate(4251.32 6786.78) rotate(174.66)"><tspan x="0" y="0">N</tspan></text>
  <text class="cls-6" transform="translate(4145.72 6796.67) rotate(177.83)"><tspan x="0" y="0">D</tspan></text>
  <text class="cls-6" transform="translate(4040.52 6800.08) rotate(-179.93)"><tspan x="0" y="0">I</tspan></text>
  <text class="cls-6" transform="translate(3996.87 6800.65) rotate(-177.68)"><tspan x="0" y="0">D</tspan></text>
  <text class="cls-6" transform="translate(3892.12 6796.55) rotate(-174.4)"><tspan x="0" y="0">O</tspan></text>
  <text class="cls-6" transform="translate(3780.05 6784.79) rotate(-172.3)"><tspan x="0" y="0"> </tspan></text>
  <text class="cls-6" transform="translate(3753.51 6781.61) rotate(-170.66)"><tspan x="0" y="0">1</tspan></text>
  <text class="cls-4" transform="translate(1063.38 5202) rotate(-112.59)"><tspan x="0" y="0">P</tspan></text>
  <text class="cls-4" transform="translate(1030.76 5124.7) rotate(-110.12)"><tspan x="0" y="0">A</tspan></text>
  <text class="cls-4" transform="translate(993.52 5022.14) rotate(-107.55)"><tspan x="0" y="0">L</tspan></text>
  <text class="cls-4" transform="translate(971.14 4952.64) rotate(-105.24)"><tspan x="0" y="0">C</tspan></text>
  <text class="cls-4" transform="translate(943.83 4853.56) rotate(-102.16)"><tspan x="0" y="0">O</tspan></text>
  <text class="cls-1" transform="translate(7057.19 3003.36) rotate(73.18)"><tspan x="0" y="0">T</tspan></text>
  <text class="cls-1" transform="translate(7087.07 3102.27) rotate(75.86)"><tspan x="0" y="0">E</tspan></text>
  <text class="cls-1" transform="translate(7111.75 3198.33) rotate(78.91)"><tspan x="0" y="0">N</tspan></text>
  <text class="cls-1" transform="translate(7137.02 3327.13) rotate(82.36)"><tspan x="0" y="0">D</tspan></text>
  <text class="cls-1" transform="translate(7153.56 3456.38) rotate(84.8)"><tspan x="0" y="0">I</tspan></text>
  <text class="cls-1" transform="translate(7159.29 3510.06) rotate(87.23)"><tspan x="0" y="0">D</tspan></text>
  <text class="cls-1" transform="translate(7165.76 3639.64) rotate(90.79)"><tspan x="0" y="0">O</tspan></text>
  <text class="cls-1" transform="translate(7162.81 3779.08) rotate(93.07)"><tspan x="0" y="0"> </tspan></text>
  <text class="cls-1" transform="translate(7161.58 3812.12) rotate(94.85)"><tspan x="0" y="0">2</tspan></text>
  <text class="cls-3" transform="translate(1860.51 6742.52) rotate(-143)"><tspan x="0" y="0">P</tspan></text>
  <text class="cls-3" transform="translate(1783.89 6685.38) rotate(-140.55)"><tspan x="0" y="0">A</tspan></text>
  <text class="cls-3" transform="translate(1688.18 6606.16) rotate(-137.98)"><tspan x="0" y="0">L</tspan></text>
  <text class="cls-3" transform="translate(1626.1 6550.82) rotate(-135.65)"><tspan x="0" y="0">C</tspan></text>
  <text class="cls-3" transform="translate(1542.21 6469.32) rotate(-132.55)"><tspan x="0" y="0">O</tspan></text>
  <text class="cls-5" transform="translate(4234.27 7496.42) rotate(176.6)"><tspan x="0" y="0">P</tspan></text>
  <text class="cls-5" transform="translate(4158.2 7501.24) rotate(178.55)"><tspan x="0" y="0">A</tspan></text>
  <text class="cls-5" transform="translate(4059.14 7503.52) rotate(-179.41)"><tspan x="0" y="0">L</tspan></text>
  <text class="cls-5" transform="translate(3992.82 7503.11) rotate(-177.56)"><tspan x="0" y="0">C</tspan></text>
  <text class="cls-5" transform="translate(3899.52 7499.34) rotate(-175.09)"><tspan x="0" y="0">O</tspan></text>
  <text class="cls-5" transform="translate(3788.41 7489.45) rotate(-172.84)"><tspan x="0" y="0">S</tspan></text>
</svg>